<svg width="30" height="30" viewBox="85 22 260 400" fill="none" xmlns="http://www.w3.org/2000/svg">
<path d="M338.618 271.955L264.457 281.519L135.947 355.713C146.566 370.223 159.063 383.307 173.297 394.467C189.965 406.346 210.213 415.006 234.277 415.908C302.602 418.502 340.705 366.003 342.442 307.222C342.801 295.085 341.343 283.399 338.618 271.955Z" fill="black"/>
<path d="M149.522 281.519C137.045 295.076 124.519 311.184 118.186 326.753C123.319 336.903 129.267 346.586 135.947 355.713L264.457 281.519H149.522ZM140.931 362.214C141.685 363.161 142.447 364.1 143.218 365.034C142.448 364.1 141.684 363.161 140.931 362.214ZM148.732 371.466C149.282 372.078 149.853 372.669 150.411 373.274C149.854 372.669 149.282 372.078 148.732 371.466ZM155.657 378.749C156.229 379.322 156.792 379.903 157.371 380.47C156.792 379.903 156.229 379.322 155.657 378.749ZM164.134 386.78C164.677 387.263 165.227 387.737 165.775 388.214C165.227 387.737 164.677 387.263 164.134 386.78Z" fill="black"/>
<path d="M286.554 167.911L184.515 248.473C184.515 248.473 167.067 262.454 149.522 281.519H264.457L265.254 281.058L327.209 239.084C316.699 215.579 301.913 192.409 286.554 167.911ZM149.522 281.519C145.181 286.235 140.865 291.248 136.776 296.457C140.861 291.26 145.186 286.229 149.522 281.519ZM135.692 297.82C134.842 298.923 134.031 300.039 133.207 301.156C134.031 300.041 134.842 298.921 135.692 297.82ZM130.904 304.328C130.211 305.312 129.547 306.297 128.882 307.287C129.547 306.298 130.212 305.31 130.904 304.328ZM125.573 312.385C125.444 312.596 125.322 312.807 125.195 313.018C125.322 312.807 125.444 312.596 125.573 312.385Z" fill="black"/>
<path d="M128.925 112.324C108.513 144.225 96.6191 181.816 95.1426 220.98C94.2364 246.129 97.668 270.818 104.892 294.001L184.516 248.473L272.796 178.774L185.536 137.248L128.925 112.324ZM307.242 201.429C307.661 202.136 308.095 202.847 308.51 203.552C308.096 202.847 307.661 202.135 307.242 201.429ZM314.521 214.058C315.086 215.072 315.629 216.085 316.183 217.098C315.629 216.085 315.086 215.071 314.521 214.058ZM320.434 225.115C320.981 226.177 321.531 227.239 322.063 228.302C321.532 227.24 320.981 226.177 320.434 225.115Z" fill="black"/>
<path d="M285.872 22.0212C238.194 22.7546 192.236 42.4028 157.023 77.3641C152.517 81.8382 148.245 86.5302 144.188 91.3983L185.536 137.248L272.795 178.774L286.554 167.911C281.069 159.161 275.525 150.259 270.057 141.087C246.09 100.887 258.905 36.8152 304.195 22.683C301.277 22.4267 298.354 22.2417 295.428 22.1281C292.236 22.0078 289.05 21.9724 285.872 22.0212ZM299.966 189.414C300.631 190.494 301.295 191.573 301.953 192.649C301.299 191.578 300.628 190.489 299.966 189.414Z" fill="black"/>
</svg>
