<svg width="20" height="32" viewBox="0 0 20 32" fill="none" xmlns="http://www.w3.org/2000/svg">
<path d="M19.4964 20.1992L13.737 20.942L3.75684 26.704C4.58149 27.8308 5.55204 28.8469 6.65741 29.7136C7.95193 30.6361 9.52436 31.3087 11.3932 31.3787C16.6994 31.5802 19.6585 27.5031 19.7934 22.9381C19.8212 21.9955 19.7081 21.088 19.4964 20.1992Z" fill="#00FF80"/>
<path d="M4.81152 20.9414C3.84258 21.9943 2.86983 23.2453 2.37793 24.4543C2.7766 25.2426 3.23854 25.9946 3.75732 26.7034L13.7375 20.9414H4.81152ZM4.14435 27.2083C4.2029 27.2818 4.26209 27.3548 4.32196 27.4272C4.26215 27.3547 4.20286 27.2818 4.14435 27.2083ZM4.75018 27.9268C4.79292 27.9743 4.83729 28.0202 4.88062 28.0672C4.83733 28.0202 4.79288 27.9743 4.75018 27.9268ZM5.28802 28.4924C5.33242 28.5369 5.37612 28.582 5.42108 28.626C5.37616 28.582 5.33238 28.5369 5.28802 28.4924ZM5.94635 29.1161C5.98849 29.1536 6.03121 29.1904 6.07379 29.2274C6.03124 29.1904 5.98846 29.1536 5.94635 29.1161Z" fill="#0080FF"/>
<path d="M15.4539 12.1191L7.52948 18.3757C7.52948 18.3757 6.17441 19.4614 4.81183 20.942H13.7378L13.7997 20.9062L18.6111 17.6465C17.795 15.8211 16.6467 14.0217 15.4539 12.1191ZM4.81183 20.942C4.47478 21.3083 4.13959 21.6976 3.82202 22.1022C4.13928 21.6986 4.47516 21.3078 4.81183 20.942ZM3.73785 22.208C3.67178 22.2937 3.60882 22.3803 3.54486 22.467C3.60881 22.3805 3.6718 22.2935 3.73785 22.208ZM3.36597 22.7134C3.31219 22.7898 3.26061 22.8663 3.20898 22.9432C3.26059 22.8664 3.31221 22.7897 3.36597 22.7134ZM2.95197 23.3391C2.94195 23.3555 2.9325 23.3719 2.92261 23.3883C2.9325 23.3719 2.94195 23.3555 2.95197 23.3391Z" fill="#00EAFF"/>
<path d="M3.21176 7.80176C1.62657 10.2792 0.70289 13.1985 0.588225 16.2401C0.517843 18.1931 0.784346 20.1105 1.34537 21.911L7.52902 18.3752L14.3849 12.9623L7.60825 9.73737L3.21176 7.80176ZM17.06 14.7217C17.0926 14.7766 17.1263 14.8318 17.1585 14.8866C17.1263 14.8318 17.0926 14.7766 17.06 14.7217ZM17.6253 15.7025C17.6692 15.7812 17.7113 15.8599 17.7544 15.9386C17.7114 15.8599 17.6692 15.7812 17.6253 15.7025ZM18.0846 16.5612C18.127 16.6437 18.1697 16.7262 18.211 16.8087C18.1698 16.7262 18.127 16.6436 18.0846 16.5612Z" fill="#00A9FF"/>
<path d="M15.4008 0.788759C11.6981 0.845709 8.12897 2.37161 5.39429 5.08673C5.04432 5.43419 4.71256 5.79858 4.39746 6.17664L7.60858 9.73737L14.3853 12.9623L15.4538 12.1187C15.0278 11.4391 14.5973 10.7478 14.1726 10.0355C12.3113 6.91353 13.3065 1.93767 16.8238 0.84015C16.5972 0.820244 16.3702 0.805882 16.1429 0.79706C15.8951 0.787716 15.6476 0.784962 15.4008 0.788759ZM16.4954 13.7886C16.547 13.8725 16.5986 13.9563 16.6497 14.0399C16.5988 13.9567 16.5467 13.8721 16.4954 13.7886Z" fill="#00FF95"/>
</svg>
