<svg width="30" height="30" viewBox="0 0 30 30" fill="none" xmlns="http://www.w3.org/2000/svg">
<path d="M23.4346 18.9375L18.0351 19.6338L8.67871 25.0357C9.45183 26.0921 10.3617 27.0447 11.398 27.8573C12.6116 28.7221 14.0858 29.3526 15.8378 29.4183C20.8123 29.6071 23.5865 25.7849 23.713 21.5052C23.7391 20.6215 23.633 19.7707 23.4346 18.9375Z" fill="white"/>
<path d="M9.66626 19.6328C8.75788 20.6199 7.84592 21.7927 7.38477 22.9262C7.75852 23.6652 8.19158 24.3702 8.67795 25.0347L18.0344 19.6328H9.66626ZM9.04078 25.508C9.09568 25.577 9.15117 25.6453 9.20729 25.7133C9.15122 25.6453 9.09564 25.5769 9.04078 25.508ZM9.60875 26.1816C9.64882 26.2262 9.69041 26.2692 9.73103 26.3132C9.69045 26.2692 9.64878 26.2262 9.60875 26.1816ZM10.113 26.7118C10.1546 26.7536 10.1956 26.7959 10.2377 26.8372C10.1956 26.7959 10.1546 26.7536 10.113 26.7118ZM10.7302 27.2966C10.7697 27.3317 10.8097 27.3662 10.8496 27.4009C10.8097 27.3662 10.7696 27.3317 10.7302 27.2966Z" fill="white"/>
<path d="M19.6441 11.3613L12.2149 17.2268C12.2149 17.2268 10.9445 18.2447 9.66709 19.6328H18.0352L18.0933 19.5992L22.604 16.5432C21.8388 14.8319 20.7622 13.145 19.6441 11.3613ZM9.66709 19.6328C9.35111 19.9761 9.03687 20.3411 8.73915 20.7204C9.03658 20.3421 9.35147 19.9757 9.66709 19.6328ZM8.66024 20.8196C8.5983 20.8999 8.53928 20.9812 8.47931 21.0625C8.53926 20.9813 8.59832 20.8998 8.66024 20.8196ZM8.3116 21.2934C8.26118 21.3651 8.21282 21.4368 8.16443 21.5089C8.21281 21.4369 8.2612 21.3649 8.3116 21.2934ZM7.92347 21.8801C7.91408 21.8954 7.90523 21.9108 7.89595 21.9262C7.90522 21.9108 7.91409 21.8954 7.92347 21.8801Z" fill="white"/>
<path d="M8.16721 7.31445C6.68109 9.63709 5.81515 12.3739 5.70765 15.2254C5.64167 17.0564 5.89151 18.8539 6.41747 20.5418L12.2146 17.227L18.642 12.1524L12.2889 9.12909L8.16721 7.31445ZM21.15 13.8019C21.1805 13.8534 21.2121 13.9051 21.2423 13.9565C21.2121 13.9052 21.1805 13.8533 21.15 13.8019ZM21.6799 14.7214C21.7211 14.7952 21.7606 14.869 21.8009 14.9427C21.7606 14.869 21.7211 14.7952 21.6799 14.7214ZM22.1105 15.5264C22.1503 15.6038 22.1903 15.6811 22.229 15.7584C22.1903 15.6811 22.1502 15.6037 22.1105 15.5264Z" fill="white"/>
<path d="M19.5939 0.739828C16.1226 0.793218 12.7766 2.22375 10.2128 4.76918C9.88475 5.09492 9.57372 5.43653 9.27832 5.79096L12.2887 9.12915L18.6419 12.1525L19.6436 11.3616C19.2443 10.7245 18.8406 10.0764 18.4425 9.40867C16.6976 6.4818 17.6305 1.81693 20.928 0.788007C20.7156 0.769345 20.5027 0.75588 20.2897 0.74761C20.0573 0.73885 19.8253 0.736268 19.5939 0.739828ZM20.6201 12.9272C20.6685 13.0058 20.7169 13.0844 20.7648 13.1627C20.7171 13.0848 20.6683 13.0054 20.6201 12.9272Z" fill="white"/>
</svg>
